<?xml version="1.0" encoding="UTF-8" standalone="no"?>
<svg
   height="436.1217mm"
   viewBox="0 0 399.32 436.12172"
   width="399.32001mm"
   version="1.1"
   id="svg31"
   sodipodi:docname="Electronics Box.svg"
   inkscape:version="1.3.2 (091e20e, 2023-11-25)"
   inkscape:export-filename="Electronics Box.pdf"
   inkscape:export-xdpi="96"
   inkscape:export-ydpi="96"
   xmlns:inkscape="http://www.inkscape.org/namespaces/inkscape"
   xmlns:sodipodi="http://sodipodi.sourceforge.net/DTD/sodipodi-0.dtd"
   xmlns="http://www.w3.org/2000/svg"
   xmlns:svg="http://www.w3.org/2000/svg"
   xmlns:rdf="http://www.w3.org/1999/02/22-rdf-syntax-ns#"
   xmlns:cc="http://creativecommons.org/ns#"
   xmlns:dc="http://purl.org/dc/elements/1.1/">
  <defs
     id="defs31" />
  <sodipodi:namedview
     id="namedview31"
     pagecolor="#ffffff"
     bordercolor="#000000"
     borderopacity="0.25"
     inkscape:showpageshadow="2"
     inkscape:pageopacity="0.0"
     inkscape:pagecheckerboard="0"
     inkscape:deskcolor="#d1d1d1"
     inkscape:document-units="mm"
     inkscape:zoom="0.44398088"
     inkscape:cx="869.40681"
     inkscape:cy="837.87392"
     inkscape:window-width="1512"
     inkscape:window-height="945"
     inkscape:window-x="0"
     inkscape:window-y="37"
     inkscape:window-maximized="0"
     inkscape:current-layer="svg31" />
  <!--
ElectronicsBox - Closed box with screw on top and mounting holes

Created with Boxes.py (https://boxes.hackerspace-bamberg.de/)
Creation date: 2024-11-26 13:52:18
Command line (remove spaces between dashes): boxes ElectronicsBox - -x=399 - -h=50 - -outsidemounts=0 - -thickness=4.0 - -burn=0.08
Url: https://boxes.hackerspace-bamberg.de/ElectronicsBox?FingerJoint_style=rectangular&FingerJoint_surroundingspaces=2.0&FingerJoint_bottom_lip=0.0&FingerJoint_edge_width=1.0&FingerJoint_extra_length=0.0&FingerJoint_finger=2.0&FingerJoint_play=0.0&FingerJoint_space=2.0&FingerJoint_width=1.0&x=399&y=100.0&h=50&outside=0&outside=1&triangle=25.0&d1=2.0&d2=3.0&d3=3.0&outsidemounts=0&holedist=7.0&thickness=4.0&format=svg&tabs=0.0&qr_code=0&debug=0&labels=0&labels=1&reference=100.0&inner_corners=loop&burn=0.08&language=en&render=2
Url short: https://boxes.hackerspace-bamberg.de/ElectronicsBox?x=399&h=50&outsidemounts=0&thickness=4.0&burn=0.08
SettingsUrl: https://boxes.hackerspace-bamberg.de/ElectronicsBox?FingerJoint_style=rectangular&FingerJoint_surroundingspaces=2.0&FingerJoint_bottom_lip=0.0&FingerJoint_edge_width=1.0&FingerJoint_extra_length=0.0&FingerJoint_finger=2.0&FingerJoint_play=0.0&FingerJoint_space=2.0&FingerJoint_width=1.0&x=399&y=100.0&h=50&outside=0&outside=1&triangle=25.0&d1=2.0&d2=3.0&d3=3.0&outsidemounts=0&holedist=7.0&thickness=4.0&format=svg&tabs=0.0&qr_code=0&debug=0&labels=0&labels=1&reference=100.0&inner_corners=loop&burn=0.08&language=en&render=2
SettingsUrl short: https://boxes.hackerspace-bamberg.de/ElectronicsBox?x=399&h=50&outsidemounts=0&thickness=4.0&burn=0.08
-->
  <title
     id="title1">ElectronicsBox</title>
  <metadata
     id="metadata1">
    <rdf:RDF>
      <cc:Work>
        <dc:title>Box - ElectronicsBox</dc:title>
        <dc:date>2024-11-26 13:52:18</dc:date>
        <dc:source>https://boxes.hackerspace-bamberg.de/ElectronicsBox?FingerJoint_style=rectangular&amp;FingerJoint_surroundingspaces=2.0&amp;FingerJoint_bottom_lip=0.0&amp;FingerJoint_edge_width=1.0&amp;FingerJoint_extra_length=0.0&amp;FingerJoint_finger=2.0&amp;FingerJoint_play=0.0&amp;FingerJoint_space=2.0&amp;FingerJoint_width=1.0&amp;x=399&amp;y=100.0&amp;h=50&amp;outside=0&amp;outside=1&amp;triangle=25.0&amp;d1=2.0&amp;d2=3.0&amp;d3=3.0&amp;outsidemounts=0&amp;holedist=7.0&amp;thickness=4.0&amp;format=svg&amp;tabs=0.0&amp;qr_code=0&amp;debug=0&amp;labels=0&amp;labels=1&amp;reference=100.0&amp;inner_corners=loop&amp;burn=0.08&amp;language=en&amp;render=2</dc:source>
        <dc:source>https://boxes.hackerspace-bamberg.de/ElectronicsBox?x=399&amp;h=50&amp;outsidemounts=0&amp;thickness=4.0&amp;burn=0.08</dc:source>
        <dc:description>Closed box with screw on top and mounting holes

Created with Boxes.py (https://boxes.hackerspace-bamberg.de/)
Command line: boxes ElectronicsBox --FingerJoint_style=rectangular --FingerJoint_surroundingspaces=2.0 --FingerJoint_bottom_lip=0.0 --FingerJoint_edge_width=1.0 --FingerJoint_extra_length=0.0 --FingerJoint_finger=2.0 --FingerJoint_play=0.0 --FingerJoint_space=2.0 --FingerJoint_width=1.0 --x=399 --y=100.0 --h=50 --outside=0 --outside=1 --triangle=25.0 --d1=2.0 --d2=3.0 --d3=3.0 --outsidemounts=0 --holedist=7.0 --thickness=4.0 --format=svg --tabs=0.0 --qr_code=0 --debug=0 --labels=0 --labels=1 --reference=100.0 --inner_corners=loop --burn=0.08
Command line short: boxes ElectronicsBox --x=399 --h=50 --outsidemounts=0 --thickness=4.0 --burn=0.08
Url: https://boxes.hackerspace-bamberg.de/ElectronicsBox?FingerJoint_style=rectangular&amp;FingerJoint_surroundingspaces=2.0&amp;FingerJoint_bottom_lip=0.0&amp;FingerJoint_edge_width=1.0&amp;FingerJoint_extra_length=0.0&amp;FingerJoint_finger=2.0&amp;FingerJoint_play=0.0&amp;FingerJoint_space=2.0&amp;FingerJoint_width=1.0&amp;x=399&amp;y=100.0&amp;h=50&amp;outside=0&amp;outside=1&amp;triangle=25.0&amp;d1=2.0&amp;d2=3.0&amp;d3=3.0&amp;outsidemounts=0&amp;holedist=7.0&amp;thickness=4.0&amp;format=svg&amp;tabs=0.0&amp;qr_code=0&amp;debug=0&amp;labels=0&amp;labels=1&amp;reference=100.0&amp;inner_corners=loop&amp;burn=0.08&amp;language=en&amp;render=2
Url short: https://boxes.hackerspace-bamberg.de/ElectronicsBox?x=399&amp;h=50&amp;outsidemounts=0&amp;thickness=4.0&amp;burn=0.08
SettingsUrl: https://boxes.hackerspace-bamberg.de/ElectronicsBox?FingerJoint_style=rectangular&amp;FingerJoint_surroundingspaces=2.0&amp;FingerJoint_bottom_lip=0.0&amp;FingerJoint_edge_width=1.0&amp;FingerJoint_extra_length=0.0&amp;FingerJoint_finger=2.0&amp;FingerJoint_play=0.0&amp;FingerJoint_space=2.0&amp;FingerJoint_width=1.0&amp;x=399&amp;y=100.0&amp;h=50&amp;outside=0&amp;outside=1&amp;triangle=25.0&amp;d1=2.0&amp;d2=3.0&amp;d3=3.0&amp;outsidemounts=0&amp;holedist=7.0&amp;thickness=4.0&amp;format=svg&amp;tabs=0.0&amp;qr_code=0&amp;debug=0&amp;labels=0&amp;labels=1&amp;reference=100.0&amp;inner_corners=loop&amp;burn=0.08&amp;language=en&amp;render=2
SettingsUrl short: https://boxes.hackerspace-bamberg.de/ElectronicsBox?x=399&amp;h=50&amp;outsidemounts=0&amp;thickness=4.0&amp;burn=0.08
</dc:description>
      </cc:Work>
    </rdf:RDF>
  </metadata>
  <g
     id="p-0"
     style="display:none;fill:none;stroke-linecap:round;stroke-linejoin:round"
     transform="translate(-9.92,40.966766)">
    <path
       d="m 10.08,253.96 h 100 v -10 h -100 z"
       stroke="#000000"
       stroke-width="0.16"
       id="path1"
       style="display:inline" />
    <text
       dominant-baseline="hanging"
       font-size="6px"
       style="font-style:normal;font-weight:normal;font-family:sans-serif;display:inline;fill:#ff0000"
       text-anchor="middle"
       transform="translate(60.08,245.96)"
       id="text1">100.0mm, burn:0.08mm</text>
  </g>
  <g
     id="p-1"
     style="fill:none;stroke-linecap:round;stroke-linejoin:round"
     transform="translate(-9.92,40.966766)">
    <path
       d="m 26.58,199.64 h -3.92 c -0.08,0 0,0.08 0,0 v -3.84 c 0,-0.08 -0.08,0 0,0 h 7.84 c 0.08,0 0,-0.08 0,0 v 3.84 c 0,0.08 0.08,0 0,0 z"
       stroke="#0000ff"
       stroke-width="0.16"
       id="path2" />
    <path
       d="m 392.58,195.8 h 3.92 c 0.08,0 0,-0.08 0,0 v 3.84 c 0,0.08 0.08,0 0,0 h -7.84 c -0.08,0 0,0.08 0,0 v -3.84 c 0,-0.08 -0.08,0 0,0 z"
       stroke="#0000ff"
       stroke-width="0.16"
       id="path3" />
    <text
       dominant-baseline="hanging"
       font-size="4px"
       style="font-style:normal;font-weight:normal;font-family:sans-serif;display:none;fill:#ff0000"
       text-anchor="middle"
       transform="translate(209.58,214.8)"
       id="text3">Wall 1</text>
    <path
       d="M 14.08,237.8 H 29.5 c 0.08,0 0,-0.08 0,0 v 3.92 c 0,0.044 0.036,0.08 0.08,0.08 h 8 c 0.044,0 0.08,-0.036 0.08,-0.08 v -3.92 c 0,-0.08 -0.08,0 0,0 h 7.84 c 0.08,0 0,-0.08 0,0 v 3.92 c 0,0.044 0.036,0.08 0.08,0.08 h 8 c 0.044,0 0.08,-0.036 0.08,-0.08 v -3.92 c 0,-0.08 -0.08,0 0,0 h 7.84 c 0.08,0 0,-0.08 0,0 v 3.92 c 0,0.044 0.036,0.08 0.08,0.08 h 8 c 0.044,0 0.08,-0.036 0.08,-0.08 v -3.92 c 0,-0.08 -0.08,0 0,0 h 7.84 c 0.08,0 0,-0.08 0,0 v 3.92 c 0,0.044 0.036,0.08 0.08,0.08 h 8 c 0.044,0 0.08,-0.036 0.08,-0.08 v -3.92 c 0,-0.08 -0.08,0 0,0 h 7.84 c 0.08,0 0,-0.08 0,0 v 3.92 c 0,0.044 0.036,0.08 0.08,0.08 h 8 c 0.044,0 0.08,-0.036 0.08,-0.08 v -3.92 c 0,-0.08 -0.08,0 0,0 h 7.84 c 0.08,0 0,-0.08 0,0 v 3.92 c 0,0.044 0.036,0.08 0.08,0.08 h 8 c 0.044,0 0.08,-0.036 0.08,-0.08 v -3.92 c 0,-0.08 -0.08,0 0,0 h 7.84 c 0.08,0 0,-0.08 0,0 v 3.92 c 0,0.044 0.036,0.08 0.08,0.08 h 8 c 0.044,0 0.08,-0.036 0.08,-0.08 v -3.92 c 0,-0.08 -0.08,0 0,0 h 7.84 c 0.08,0 0,-0.08 0,0 v 3.92 c 0,0.044 0.036,0.08 0.08,0.08 h 8 c 0.044,0 0.08,-0.036 0.08,-0.08 v -3.92 c 0,-0.08 -0.08,0 0,0 h 7.84 c 0.08,0 0,-0.08 0,0 v 3.92 c 0,0.044 0.036,0.08 0.08,0.08 h 8 c 0.044,0 0.08,-0.036 0.08,-0.08 v -3.92 c 0,-0.08 -0.08,0 0,0 h 7.84 c 0.08,0 0,-0.08 0,0 v 3.92 c 0,0.044 0.036,0.08 0.08,0.08 h 8 c 0.044,0 0.08,-0.036 0.08,-0.08 v -3.92 c 0,-0.08 -0.08,0 0,0 h 7.84 c 0.08,0 0,-0.08 0,0 v 3.92 c 0,0.044 0.036,0.08 0.08,0.08 h 8 c 0.044,0 0.08,-0.036 0.08,-0.08 v -3.92 c 0,-0.08 -0.08,0 0,0 h 7.84 c 0.08,0 0,-0.08 0,0 v 3.92 c 0,0.044 0.036,0.08 0.08,0.08 h 8 c 0.044,0 0.08,-0.036 0.08,-0.08 v -3.92 c 0,-0.08 -0.08,0 0,0 h 7.84 c 0.08,0 0,-0.08 0,0 v 3.92 c 0,0.044 0.036,0.08 0.08,0.08 h 8 c 0.044,0 0.08,-0.036 0.08,-0.08 v -3.92 c 0,-0.08 -0.08,0 0,0 h 7.84 c 0.08,0 0,-0.08 0,0 v 3.92 c 0,0.044 0.036,0.08 0.08,0.08 h 8 c 0.044,0 0.08,-0.036 0.08,-0.08 v -3.92 c 0,-0.08 -0.08,0 0,0 h 7.84 c 0.08,0 0,-0.08 0,0 v 3.92 c 0,0.044 0.036,0.08 0.08,0.08 h 8 c 0.044,0 0.08,-0.036 0.08,-0.08 v -3.92 c 0,-0.08 -0.08,0 0,0 h 7.84 c 0.08,0 0,-0.08 0,0 v 3.92 c 0,0.044 0.036,0.08 0.08,0.08 h 8 c 0.044,0 0.08,-0.036 0.08,-0.08 v -3.92 c 0,-0.08 -0.08,0 0,0 h 7.84 c 0.08,0 0,-0.08 0,0 v 3.92 c 0,0.044 0.036,0.08 0.08,0.08 h 8 c 0.044,0 0.08,-0.036 0.08,-0.08 v -3.92 c 0,-0.08 -0.08,0 0,0 h 7.84 c 0.08,0 0,-0.08 0,0 v 3.92 c 0,0.044 0.036,0.08 0.08,0.08 h 8 c 0.044,0 0.08,-0.036 0.08,-0.08 v -3.92 c 0,-0.08 -0.08,0 0,0 h 7.84 c 0.08,0 0,-0.08 0,0 v 3.92 c 0,0.044 0.036,0.08 0.08,0.08 h 8 c 0.044,0 0.08,-0.036 0.08,-0.08 v -3.92 c 0,-0.08 -0.08,0 0,0 h 7.84 c 0.08,0 0,-0.08 0,0 v 3.92 c 0,0.044 0.036,0.08 0.08,0.08 h 8 c 0.044,0 0.08,-0.036 0.08,-0.08 v -3.92 c 0,-0.08 -0.08,0 0,0 h 7.84 c 0.08,0 0,-0.08 0,0 v 3.92 c 0,0.044 0.036,0.08 0.08,0.08 h 8 c 0.044,0 0.08,-0.036 0.08,-0.08 v -3.92 c 0,-0.08 -0.08,0 0,0 h 7.84 c 0.08,0 0,-0.08 0,0 v 3.92 c 0,0.044 0.036,0.08 0.08,0.08 h 8 c 0.044,0 0.08,-0.036 0.08,-0.08 v -3.92 c 0,-0.08 -0.08,0 0,0 h 7.84 c 0.08,0 0,-0.08 0,0 v 3.92 c 0,0.044 0.036,0.08 0.08,0.08 h 8 c 0.044,0 0.08,-0.036 0.08,-0.08 v -3.92 c 0,-0.08 -0.08,0 0,0 h 15.42 4 c 0.044,0 0.08,-0.036 0.08,-0.08 v -11 c 0,-0.044 -0.036,-0.08 -0.08,-0.08 h -3.92 c -0.08,0 0,0.08 0,0 v -7.84 c 0,-0.08 -0.08,0 0,0 h 3.92 c 0.044,0 0.08,-0.036 0.08,-0.08 v -8 c 0,-0.044 -0.036,-0.08 -0.08,-0.08 h -3.92 c -0.08,0 0,0.08 0,0 v -7.84 c 0,-0.08 -0.08,0 0,0 h 3.92 c 0.044,0 0.08,-0.036 0.08,-0.08 v -11 c 0,-0.044 -0.036,-0.08 -0.08,-0.08 h -4 -391 -4 c -0.044,0 -0.08,0.036 -0.08,0.08 v 11 c 0,0.044 0.036,0.08 0.08,0.08 H 14 c 0.08,0 0,-0.08 0,0 v 7.84 c 0,0.08 0.08,0 0,0 h -3.92 c -0.044,0 -0.08,0.036 -0.08,0.08 v 8 c 0,0.044 0.036,0.08 0.08,0.08 H 14 c 0.08,0 0,-0.08 0,0 v 7.84 c 0,0.08 0.08,0 0,0 h -3.92 c -0.044,0 -0.08,0.036 -0.08,0.08 v 11 c 0,0.044 0.036,0.08 0.08,0.08 h 4"
       stroke="#000000"
       stroke-width="0.16"
       id="path4" />
  </g>
  <g
     id="p-2"
     style="fill:none;stroke-linecap:round;stroke-linejoin:round"
     transform="translate(-307.2911,194.24171)">
    <path
       d="m 427.74,199.64 h -3.92 c -0.08,0 0,0.08 0,0 v -3.84 c 0,-0.08 -0.08,0 0,0 h 7.84 c 0.08,0 0,-0.08 0,0 v 3.84 c 0,0.08 0.08,0 0,0 z"
       stroke="#0000ff"
       stroke-width="0.16"
       id="path5" />
    <path
       d="m 494.74,195.8 h 3.92 c 0.08,0 0,-0.08 0,0 v 3.84 c 0,0.08 0.08,0 0,0 h -7.84 c -0.08,0 0,0.08 0,0 v -3.84 c 0,-0.08 -0.08,0 0,0 z"
       stroke="#0000ff"
       stroke-width="0.16"
       id="path6" />
    <text
       dominant-baseline="hanging"
       font-size="4px"
       style="font-style:normal;font-weight:normal;font-family:sans-serif;display:none;fill:#ff0000"
       text-anchor="middle"
       transform="translate(461.24,214.8)"
       id="text6">Wall 2</text>
    <path
       d="m 415.24,237.8 h 9.92 c 0.08,0 0,-0.08 0,0 v 3.92 c 0,0.044 0.036,0.08 0.08,0.08 h 8 c 0.044,0 0.08,-0.036 0.08,-0.08 v -3.92 c 0,-0.08 -0.08,0 0,0 h 7.84 c 0.08,0 0,-0.08 0,0 v 3.92 c 0,0.044 0.036,0.08 0.08,0.08 h 8 c 0.044,0 0.08,-0.036 0.08,-0.08 v -3.92 c 0,-0.08 -0.08,0 0,0 h 7.84 c 0.08,0 0,-0.08 0,0 v 3.92 c 0,0.044 0.036,0.08 0.08,0.08 h 8 c 0.044,0 0.08,-0.036 0.08,-0.08 v -3.92 c 0,-0.08 -0.08,0 0,0 h 7.84 c 0.08,0 0,-0.08 0,0 v 3.92 c 0,0.044 0.036,0.08 0.08,0.08 h 8 c 0.044,0 0.08,-0.036 0.08,-0.08 v -3.92 c 0,-0.08 -0.08,0 0,0 h 7.84 c 0.08,0 0,-0.08 0,0 v 3.92 c 0,0.044 0.036,0.08 0.08,0.08 h 8 c 0.044,0 0.08,-0.036 0.08,-0.08 v -3.92 c 0,-0.08 -0.08,0 0,0 h 9.92 c 0.044,0 0.08,-0.036 0.08,-0.08 V 226.8 c 0,-0.08 -0.08,0 0,0 h 3.92 c 0.044,0 0.08,-0.036 0.08,-0.08 v -8 c 0,-0.044 -0.036,-0.08 -0.08,-0.08 h -3.92 c -0.08,0 0,0.08 0,0 v -7.84 c 0,-0.08 -0.08,0 0,0 h 3.92 c 0.044,0 0.08,-0.036 0.08,-0.08 v -8 c 0,-0.044 -0.036,-0.08 -0.08,-0.08 h -3.92 c -0.08,0 0,0.08 0,0 v -10.92 c 0,-0.044 -0.036,-0.08 -0.08,-0.08 h -92 c -0.044,0 -0.08,0.036 -0.08,0.08 v 10.92 c 0,0.08 0.08,0 0,0 h -3.92 c -0.044,0 -0.08,0.036 -0.08,0.08 v 8 c 0,0.044 0.036,0.08 0.08,0.08 h 3.92 c 0.08,0 0,-0.08 0,0 v 7.84 c 0,0.08 0.08,0 0,0 h -3.92 c -0.044,0 -0.08,0.036 -0.08,0.08 v 8 c 0,0.044 0.036,0.08 0.08,0.08 h 3.92 c 0.08,0 0,-0.08 0,0 v 10.92 c 0,0.044 0.036,0.08 0.08,0.08"
       stroke="#000000"
       stroke-width="0.16"
       id="path7" />
  </g>
  <g
     id="p-3"
     style="fill:none;stroke-linecap:round;stroke-linejoin:round"
     transform="translate(-411.08,246.40171)">
    <path
       d="m 427.74,147.48 h -3.92 c -0.08,0 0,0.08 0,0 v -3.84 c 0,-0.08 -0.08,0 0,0 h 7.84 c 0.08,0 0,-0.08 0,0 v 3.84 c 0,0.08 0.08,0 0,0 z"
       stroke="#0000ff"
       stroke-width="0.16"
       id="path8" />
    <path
       d="m 494.74,143.64 h 3.92 c 0.08,0 0,-0.08 0,0 v 3.84 c 0,0.08 0.08,0 0,0 h -7.84 c -0.08,0 0,0.08 0,0 v -3.84 c 0,-0.08 -0.08,0 0,0 z"
       stroke="#0000ff"
       stroke-width="0.16"
       id="path9" />
    <text
       dominant-baseline="hanging"
       font-size="4px"
       style="font-style:normal;font-weight:normal;font-family:sans-serif;display:none;fill:#ff0000"
       text-anchor="middle"
       transform="translate(461.24,162.64)"
       id="text9">Wall 4</text>
    <path
       d="m 415.24,185.64 h 9.92 c 0.08,0 0,-0.08 0,0 v 3.92 c 0,0.044 0.036,0.08 0.08,0.08 h 8 c 0.044,0 0.08,-0.036 0.08,-0.08 v -3.92 c 0,-0.08 -0.08,0 0,0 h 7.84 c 0.08,0 0,-0.08 0,0 v 3.92 c 0,0.044 0.036,0.08 0.08,0.08 h 8 c 0.044,0 0.08,-0.036 0.08,-0.08 v -3.92 c 0,-0.08 -0.08,0 0,0 h 7.84 c 0.08,0 0,-0.08 0,0 v 3.92 c 0,0.044 0.036,0.08 0.08,0.08 h 8 c 0.044,0 0.08,-0.036 0.08,-0.08 v -3.92 c 0,-0.08 -0.08,0 0,0 h 7.84 c 0.08,0 0,-0.08 0,0 v 3.92 c 0,0.044 0.036,0.08 0.08,0.08 h 8 c 0.044,0 0.08,-0.036 0.08,-0.08 v -3.92 c 0,-0.08 -0.08,0 0,0 h 7.84 c 0.08,0 0,-0.08 0,0 v 3.92 c 0,0.044 0.036,0.08 0.08,0.08 h 8 c 0.044,0 0.08,-0.036 0.08,-0.08 v -3.92 c 0,-0.08 -0.08,0 0,0 h 9.92 c 0.044,0 0.08,-0.036 0.08,-0.08 v -10.92 c 0,-0.08 -0.08,0 0,0 h 3.92 c 0.044,0 0.08,-0.036 0.08,-0.08 v -8 c 0,-0.044 -0.036,-0.08 -0.08,-0.08 h -3.92 c -0.08,0 0,0.08 0,0 v -7.84 c 0,-0.08 -0.08,0 0,0 h 3.92 c 0.044,0 0.08,-0.036 0.08,-0.08 v -8 c 0,-0.044 -0.036,-0.08 -0.08,-0.08 h -3.92 c -0.08,0 0,0.08 0,0 v -10.92 c 0,-0.044 -0.036,-0.08 -0.08,-0.08 h -92 c -0.044,0 -0.08,0.036 -0.08,0.08 v 10.92 c 0,0.08 0.08,0 0,0 h -3.92 c -0.044,0 -0.08,0.036 -0.08,0.08 v 8 c 0,0.044 0.036,0.08 0.08,0.08 h 3.92 c 0.08,0 0,-0.08 0,0 v 7.84 c 0,0.08 0.08,0 0,0 h -3.92 c -0.044,0 -0.08,0.036 -0.08,0.08 v 8 c 0,0.044 0.036,0.08 0.08,0.08 h 3.92 c 0.08,0 0,-0.08 0,0 v 10.92 c 0,0.044 0.036,0.08 0.08,0.08"
       stroke="#000000"
       stroke-width="0.16"
       id="path10" />
  </g>
  <g
     id="p-4"
     style="fill:none;stroke-linecap:round;stroke-linejoin:round"
     transform="translate(-9.92,40.966766)">
    <path
       d="m 26.58,147.48 h -3.92 c -0.08,0 0,0.08 0,0 v -3.84 c 0,-0.08 -0.08,0 0,0 h 7.84 c 0.08,0 0,-0.08 0,0 v 3.84 c 0,0.08 0.08,0 0,0 z"
       stroke="#0000ff"
       stroke-width="0.16"
       id="path11" />
    <path
       d="m 392.58,143.64 h 3.92 c 0.08,0 0,-0.08 0,0 v 3.84 c 0,0.08 0.08,0 0,0 h -7.84 c -0.08,0 0,0.08 0,0 v -3.84 c 0,-0.08 -0.08,0 0,0 z"
       stroke="#0000ff"
       stroke-width="0.16"
       id="path12" />
    <text
       dominant-baseline="hanging"
       font-size="4px"
       style="font-style:normal;font-weight:normal;font-family:sans-serif;display:none;fill:#ff0000"
       text-anchor="middle"
       transform="translate(209.58,162.64)"
       id="text12">Wall 3</text>
    <path
       d="M 14.08,185.64 H 29.5 c 0.08,0 0,-0.08 0,0 v 3.92 c 0,0.044 0.036,0.08 0.08,0.08 h 8 c 0.044,0 0.08,-0.036 0.08,-0.08 v -3.92 c 0,-0.08 -0.08,0 0,0 h 7.84 c 0.08,0 0,-0.08 0,0 v 3.92 c 0,0.044 0.036,0.08 0.08,0.08 h 8 c 0.044,0 0.08,-0.036 0.08,-0.08 v -3.92 c 0,-0.08 -0.08,0 0,0 h 7.84 c 0.08,0 0,-0.08 0,0 v 3.92 c 0,0.044 0.036,0.08 0.08,0.08 h 8 c 0.044,0 0.08,-0.036 0.08,-0.08 v -3.92 c 0,-0.08 -0.08,0 0,0 h 7.84 c 0.08,0 0,-0.08 0,0 v 3.92 c 0,0.044 0.036,0.08 0.08,0.08 h 8 c 0.044,0 0.08,-0.036 0.08,-0.08 v -3.92 c 0,-0.08 -0.08,0 0,0 h 7.84 c 0.08,0 0,-0.08 0,0 v 3.92 c 0,0.044 0.036,0.08 0.08,0.08 h 8 c 0.044,0 0.08,-0.036 0.08,-0.08 v -3.92 c 0,-0.08 -0.08,0 0,0 h 7.84 c 0.08,0 0,-0.08 0,0 v 3.92 c 0,0.044 0.036,0.08 0.08,0.08 h 8 c 0.044,0 0.08,-0.036 0.08,-0.08 v -3.92 c 0,-0.08 -0.08,0 0,0 h 7.84 c 0.08,0 0,-0.08 0,0 v 3.92 c 0,0.044 0.036,0.08 0.08,0.08 h 8 c 0.044,0 0.08,-0.036 0.08,-0.08 v -3.92 c 0,-0.08 -0.08,0 0,0 h 7.84 c 0.08,0 0,-0.08 0,0 v 3.92 c 0,0.044 0.036,0.08 0.08,0.08 h 8 c 0.044,0 0.08,-0.036 0.08,-0.08 v -3.92 c 0,-0.08 -0.08,0 0,0 h 7.84 c 0.08,0 0,-0.08 0,0 v 3.92 c 0,0.044 0.036,0.08 0.08,0.08 h 8 c 0.044,0 0.08,-0.036 0.08,-0.08 v -3.92 c 0,-0.08 -0.08,0 0,0 h 7.84 c 0.08,0 0,-0.08 0,0 v 3.92 c 0,0.044 0.036,0.08 0.08,0.08 h 8 c 0.044,0 0.08,-0.036 0.08,-0.08 v -3.92 c 0,-0.08 -0.08,0 0,0 h 7.84 c 0.08,0 0,-0.08 0,0 v 3.92 c 0,0.044 0.036,0.08 0.08,0.08 h 8 c 0.044,0 0.08,-0.036 0.08,-0.08 v -3.92 c 0,-0.08 -0.08,0 0,0 h 7.84 c 0.08,0 0,-0.08 0,0 v 3.92 c 0,0.044 0.036,0.08 0.08,0.08 h 8 c 0.044,0 0.08,-0.036 0.08,-0.08 v -3.92 c 0,-0.08 -0.08,0 0,0 h 7.84 c 0.08,0 0,-0.08 0,0 v 3.92 c 0,0.044 0.036,0.08 0.08,0.08 h 8 c 0.044,0 0.08,-0.036 0.08,-0.08 v -3.92 c 0,-0.08 -0.08,0 0,0 h 7.84 c 0.08,0 0,-0.08 0,0 v 3.92 c 0,0.044 0.036,0.08 0.08,0.08 h 8 c 0.044,0 0.08,-0.036 0.08,-0.08 v -3.92 c 0,-0.08 -0.08,0 0,0 h 7.84 c 0.08,0 0,-0.08 0,0 v 3.92 c 0,0.044 0.036,0.08 0.08,0.08 h 8 c 0.044,0 0.08,-0.036 0.08,-0.08 v -3.92 c 0,-0.08 -0.08,0 0,0 h 7.84 c 0.08,0 0,-0.08 0,0 v 3.92 c 0,0.044 0.036,0.08 0.08,0.08 h 8 c 0.044,0 0.08,-0.036 0.08,-0.08 v -3.92 c 0,-0.08 -0.08,0 0,0 h 7.84 c 0.08,0 0,-0.08 0,0 v 3.92 c 0,0.044 0.036,0.08 0.08,0.08 h 8 c 0.044,0 0.08,-0.036 0.08,-0.08 v -3.92 c 0,-0.08 -0.08,0 0,0 h 7.84 c 0.08,0 0,-0.08 0,0 v 3.92 c 0,0.044 0.036,0.08 0.08,0.08 h 8 c 0.044,0 0.08,-0.036 0.08,-0.08 v -3.92 c 0,-0.08 -0.08,0 0,0 h 7.84 c 0.08,0 0,-0.08 0,0 v 3.92 c 0,0.044 0.036,0.08 0.08,0.08 h 8 c 0.044,0 0.08,-0.036 0.08,-0.08 v -3.92 c 0,-0.08 -0.08,0 0,0 h 7.84 c 0.08,0 0,-0.08 0,0 v 3.92 c 0,0.044 0.036,0.08 0.08,0.08 h 8 c 0.044,0 0.08,-0.036 0.08,-0.08 v -3.92 c 0,-0.08 -0.08,0 0,0 h 7.84 c 0.08,0 0,-0.08 0,0 v 3.92 c 0,0.044 0.036,0.08 0.08,0.08 h 8 c 0.044,0 0.08,-0.036 0.08,-0.08 v -3.92 c 0,-0.08 -0.08,0 0,0 h 7.84 c 0.08,0 0,-0.08 0,0 v 3.92 c 0,0.044 0.036,0.08 0.08,0.08 h 8 c 0.044,0 0.08,-0.036 0.08,-0.08 v -3.92 c 0,-0.08 -0.08,0 0,0 h 7.84 c 0.08,0 0,-0.08 0,0 v 3.92 c 0,0.044 0.036,0.08 0.08,0.08 h 8 c 0.044,0 0.08,-0.036 0.08,-0.08 v -3.92 c 0,-0.08 -0.08,0 0,0 h 15.42 4 c 0.044,0 0.08,-0.036 0.08,-0.08 v -11 c 0,-0.044 -0.036,-0.08 -0.08,-0.08 h -3.92 c -0.08,0 0,0.08 0,0 v -7.84 c 0,-0.08 -0.08,0 0,0 h 3.92 c 0.044,0 0.08,-0.036 0.08,-0.08 v -8 c 0,-0.044 -0.036,-0.08 -0.08,-0.08 h -3.92 c -0.08,0 0,0.08 0,0 v -7.84 c 0,-0.08 -0.08,0 0,0 h 3.92 c 0.044,0 0.08,-0.036 0.08,-0.08 v -11 c 0,-0.044 -0.036,-0.08 -0.08,-0.08 h -4 -391 -4 c -0.044,0 -0.08,0.036 -0.08,0.08 v 11 c 0,0.044 0.036,0.08 0.08,0.08 H 14 c 0.08,0 0,-0.08 0,0 v 7.84 c 0,0.08 0.08,0 0,0 h -3.92 c -0.044,0 -0.08,0.036 -0.08,0.08 v 8 c 0,0.044 0.036,0.08 0.08,0.08 H 14 c 0.08,0 0,-0.08 0,0 v 7.84 c 0,0.08 0.08,0 0,0 h -3.92 c -0.044,0 -0.08,0.036 -0.08,0.08 v 11 c 0,0.044 0.036,0.08 0.08,0.08 h 4"
       stroke="#000000"
       stroke-width="0.16"
       id="path13" />
  </g>
  <g
     id="p-5"
     style="fill:none;stroke-linecap:round;stroke-linejoin:round"
     transform="translate(-9.92,40.966766)">
    <path
       d="m 22.5,126.4 c 0,0.272 -0.078,0.539 -0.225,0.768 -0.148,0.229 -0.357,0.411 -0.605,0.524 -0.248,0.113 -0.523,0.152 -0.792,0.114 -0.27,-0.039 -0.522,-0.155 -0.728,-0.333 -0.206,-0.178 -0.356,-0.412 -0.432,-0.673 -0.077,-0.261 -0.077,-0.539 0,-0.8 0.076,-0.261 0.226,-0.495 0.432,-0.673 0.206,-0.178 0.458,-0.294 0.728,-0.333 0.269,-0.038 0.544,0.001 0.792,0.114 0.248,0.113 0.457,0.295 0.605,0.524 0.147,0.229 0.225,0.496 0.225,0.768 z"
       stroke="#0000ff"
       stroke-width="0.16"
       id="path14" />
    <text
       dominant-baseline="hanging"
       font-size="4px"
       style="font-style:normal;font-weight:normal;font-family:sans-serif;display:none;fill:#ff0000"
       text-anchor="middle"
       transform="translate(209.58,85.48)"
       id="text14">Bottom</text>
    <path
       d="m 14.08,137.48 h 15.5 c 0.044,0 0.08,-0.036 0.08,-0.08 v -3.92 c 0,-0.08 -0.08,0 0,0 h 7.84 c 0.08,0 0,-0.08 0,0 v 3.92 c 0,0.044 0.036,0.08 0.08,0.08 h 8 c 0.044,0 0.08,-0.036 0.08,-0.08 v -3.92 c 0,-0.08 -0.08,0 0,0 h 7.84 c 0.08,0 0,-0.08 0,0 v 3.92 c 0,0.044 0.036,0.08 0.08,0.08 h 8 c 0.044,0 0.08,-0.036 0.08,-0.08 v -3.92 c 0,-0.08 -0.08,0 0,0 h 7.84 c 0.08,0 0,-0.08 0,0 v 3.92 c 0,0.044 0.036,0.08 0.08,0.08 h 8 c 0.044,0 0.08,-0.036 0.08,-0.08 v -3.92 c 0,-0.08 -0.08,0 0,0 h 7.84 c 0.08,0 0,-0.08 0,0 v 3.92 c 0,0.044 0.036,0.08 0.08,0.08 h 8 c 0.044,0 0.08,-0.036 0.08,-0.08 v -3.92 c 0,-0.08 -0.08,0 0,0 h 7.84 c 0.08,0 0,-0.08 0,0 v 3.92 c 0,0.044 0.036,0.08 0.08,0.08 h 8 c 0.044,0 0.08,-0.036 0.08,-0.08 v -3.92 c 0,-0.08 -0.08,0 0,0 h 7.84 c 0.08,0 0,-0.08 0,0 v 3.92 c 0,0.044 0.036,0.08 0.08,0.08 h 8 c 0.044,0 0.08,-0.036 0.08,-0.08 v -3.92 c 0,-0.08 -0.08,0 0,0 h 7.84 c 0.08,0 0,-0.08 0,0 v 3.92 c 0,0.044 0.036,0.08 0.08,0.08 h 8 c 0.044,0 0.08,-0.036 0.08,-0.08 v -3.92 c 0,-0.08 -0.08,0 0,0 h 7.84 c 0.08,0 0,-0.08 0,0 v 3.92 c 0,0.044 0.036,0.08 0.08,0.08 h 8 c 0.044,0 0.08,-0.036 0.08,-0.08 v -3.92 c 0,-0.08 -0.08,0 0,0 h 7.84 c 0.08,0 0,-0.08 0,0 v 3.92 c 0,0.044 0.036,0.08 0.08,0.08 h 8 c 0.044,0 0.08,-0.036 0.08,-0.08 v -3.92 c 0,-0.08 -0.08,0 0,0 h 7.84 c 0.08,0 0,-0.08 0,0 v 3.92 c 0,0.044 0.036,0.08 0.08,0.08 h 8 c 0.044,0 0.08,-0.036 0.08,-0.08 v -3.92 c 0,-0.08 -0.08,0 0,0 h 7.84 c 0.08,0 0,-0.08 0,0 v 3.92 c 0,0.044 0.036,0.08 0.08,0.08 h 8 c 0.044,0 0.08,-0.036 0.08,-0.08 v -3.92 c 0,-0.08 -0.08,0 0,0 h 7.84 c 0.08,0 0,-0.08 0,0 v 3.92 c 0,0.044 0.036,0.08 0.08,0.08 h 8 c 0.044,0 0.08,-0.036 0.08,-0.08 v -3.92 c 0,-0.08 -0.08,0 0,0 h 7.84 c 0.08,0 0,-0.08 0,0 v 3.92 c 0,0.044 0.036,0.08 0.08,0.08 h 8 c 0.044,0 0.08,-0.036 0.08,-0.08 v -3.92 c 0,-0.08 -0.08,0 0,0 h 7.84 c 0.08,0 0,-0.08 0,0 v 3.92 c 0,0.044 0.036,0.08 0.08,0.08 h 8 c 0.044,0 0.08,-0.036 0.08,-0.08 v -3.92 c 0,-0.08 -0.08,0 0,0 h 7.84 c 0.08,0 0,-0.08 0,0 v 3.92 c 0,0.044 0.036,0.08 0.08,0.08 h 8 c 0.044,0 0.08,-0.036 0.08,-0.08 v -3.92 c 0,-0.08 -0.08,0 0,0 h 7.84 c 0.08,0 0,-0.08 0,0 v 3.92 c 0,0.044 0.036,0.08 0.08,0.08 h 8 c 0.044,0 0.08,-0.036 0.08,-0.08 v -3.92 c 0,-0.08 -0.08,0 0,0 h 7.84 c 0.08,0 0,-0.08 0,0 v 3.92 c 0,0.044 0.036,0.08 0.08,0.08 h 8 c 0.044,0 0.08,-0.036 0.08,-0.08 v -3.92 c 0,-0.08 -0.08,0 0,0 h 7.84 c 0.08,0 0,-0.08 0,0 v 3.92 c 0,0.044 0.036,0.08 0.08,0.08 h 8 c 0.044,0 0.08,-0.036 0.08,-0.08 v -3.92 c 0,-0.08 -0.08,0 0,0 h 7.84 c 0.08,0 0,-0.08 0,0 v 3.92 c 0,0.044 0.036,0.08 0.08,0.08 h 8 c 0.044,0 0.08,-0.036 0.08,-0.08 v -3.92 c 0,-0.08 -0.08,0 0,0 h 7.84 c 0.08,0 0,-0.08 0,0 v 3.92 c 0,0.044 0.036,0.08 0.08,0.08 h 8 c 0.044,0 0.08,-0.036 0.08,-0.08 v -3.92 c 0,-0.08 -0.08,0 0,0 h 7.84 c 0.08,0 0,-0.08 0,0 v 3.92 c 0,0.044 0.036,0.08 0.08,0.08 h 8 c 0.044,0 0.08,-0.036 0.08,-0.08 v -3.92 c 0,-0.08 -0.08,0 0,0 h 7.84 c 0.08,0 0,-0.08 0,0 v 3.92 c 0,0.044 0.036,0.08 0.08,0.08 h 8 c 0.044,0 0.08,-0.036 0.08,-0.08 v -3.92 c 0,-0.08 -0.08,0 0,0 h 7.84 c 0.08,0 0,-0.08 0,0 v 3.92 c 0,0.044 0.036,0.08 0.08,0.08 h 15.5 4 c 0.044,0 0.08,-0.036 0.08,-0.08 v -4 -10 c 0,-0.044 -0.036,-0.08 -0.08,-0.08 h -3.92 c -0.08,0 0,0.08 0,0 v -7.84 c 0,-0.08 -0.08,0 0,0 h 3.92 c 0.044,0 0.08,-0.036 0.08,-0.08 v -8 c 0,-0.044 -0.036,-0.08 -0.08,-0.08 h -3.92 c -0.08,0 0,0.08 0,0 v -7.84 c 0,-0.08 -0.08,0 0,0 h 3.92 c 0.044,0 0.08,-0.036 0.08,-0.08 v -8 c 0,-0.044 -0.036,-0.08 -0.08,-0.08 h -3.92 c -0.08,0 0,0.08 0,0 v -7.84 c 0,-0.08 -0.08,0 0,0 h 3.92 c 0.044,0 0.08,-0.036 0.08,-0.08 v -8 c 0,-0.044 -0.036,-0.08 -0.08,-0.08 h -3.92 c -0.08,0 0,0.08 0,0 v -7.84 c 0,-0.08 -0.08,0 0,0 h 3.92 c 0.044,0 0.08,-0.036 0.08,-0.08 v -8 c 0,-0.044 -0.036,-0.08 -0.08,-0.08 h -3.92 c -0.08,0 0,0.08 0,0 v -7.84 c 0,-0.08 -0.08,0 0,0 h 3.92 c 0.044,0 0.08,-0.036 0.08,-0.08 v -88.206766 -4 c 0,-0.044 -0.56841,-0.08 -0.08,-0.08 h -4 -391 -4 c -0.044,0 -0.08,0.036 -0.08,0.08 v 4 V 51.4 c 0,0.044 0.036,0.08 0.08,0.08 H 14 c 0.08,0 0,-0.08 0,0 v 7.84 c 0,0.08 0.08,0 0,0 H 10.08 C 10.036,59.32 10,59.356 10,59.4 v 8 c 0,0.044 0.036,0.08 0.08,0.08 H 14 c 0.08,0 0,-0.08 0,0 v 7.84 c 0,0.08 0.08,0 0,0 H 10.08 C 10.036,75.32 10,75.356 10,75.4 v 8 c 0,0.044 0.036,0.08 0.08,0.08 H 14 c 0.08,0 0,-0.08 0,0 v 7.84 c 0,0.08 0.08,0 0,0 H 10.08 C 10.036,91.32 10,91.356 10,91.4 v 8 c 0,0.044 0.036,0.08 0.08,0.08 H 14 c 0.08,0 0,-0.08 0,0 v 7.84 c 0,0.08 0.08,0 0,0 h -3.92 c -0.044,0 -0.08,0.036 -0.08,0.08 v 8 c 0,0.044 0.036,0.08 0.08,0.08 H 14 c 0.08,0 0,-0.08 0,0 v 7.84 c 0,0.08 0.08,0 0,0 h -3.92 c -0.044,0 -0.08,0.036 -0.08,0.08 v 10 4 c 0,0.044 0.036,0.08 0.08,0.08 h 4"
       stroke="#000000"
       stroke-width="0.16"
       id="path15"
       style="display:inline"
       inkscape:label="path15"
       sodipodi:nodetypes="csssssssssssssssssssssssssssssssssssssssssssssssssssssssssssssssssssssssssssssssssssssssssssssssssssssssssssssssssssssssssssssssssssssssssssssssssssssssssssssssssssssssssssssssssssssssscsscsssssssssssssssssssssssssssssssssssssssscscccsscsssssssssssssssssssssssssssssssssssssssscssc" />
    <path
       d="m 398.08,124.98 c 0.272,0 0.539,0.078 0.768,0.225 0.229,0.148 0.411,0.357 0.524,0.605 0.113,0.248 0.152,0.523 0.114,0.792 -0.039,0.27 -0.155,0.522 -0.333,0.728 -0.178,0.206 -0.412,0.356 -0.673,0.432 -0.261,0.077 -0.539,0.077 -0.8,0 -0.261,-0.076 -0.495,-0.226 -0.673,-0.432 -0.178,-0.206 -0.294,-0.458 -0.333,-0.728 -0.038,-0.269 0.001,-0.544 0.114,-0.792 0.113,-0.248 0.295,-0.457 0.524,-0.605 0.229,-0.147 0.496,-0.225 0.768,-0.225 z"
       stroke="#0000ff"
       stroke-width="0.16"
       id="path16"
       inkscape:label="path16" />
    <path
       d="m 396.66,48.4 c 0,-0.272 0.078,-0.539 0.225,-0.768 0.148,-0.229 0.357,-0.411 0.605,-0.524 0.248,-0.113 0.523,-0.152 0.792,-0.114 0.27,0.039 0.522,0.155 0.728,0.333 0.206,0.178 0.356,0.412 0.432,0.673 0.077,0.261 0.077,0.539 0,0.8 -0.076,0.261 -0.226,0.495 -0.432,0.673 -0.206,0.178 -0.458,0.294 -0.728,0.333 -0.269,0.038 -0.544,-10e-4 -0.792,-0.114 -0.248,-0.113 -0.457,-0.295 -0.605,-0.524 -0.147,-0.229 -0.225,-0.496 -0.225,-0.768 z"
       stroke="#0000ff"
       stroke-width="0.16"
       id="path17"
       style="display:inline" />
    <path
       d="m 21.08,49.82 c -0.272,0 -0.539,-0.078 -0.768,-0.225 -0.229,-0.148 -0.411,-0.357 -0.524,-0.605 -0.113,-0.248 -0.152,-0.523 -0.114,-0.792 0.039,-0.27 0.155,-0.522 0.333,-0.728 0.178,-0.206 0.412,-0.356 0.673,-0.432 0.261,-0.077 0.539,-0.077 0.8,0 0.261,0.076 0.495,0.226 0.673,0.432 0.178,0.206 0.294,0.458 0.333,0.728 0.038,0.269 -0.001,0.544 -0.114,0.792 -0.113,0.248 -0.295,0.457 -0.524,0.605 -0.229,0.147 -0.496,0.225 -0.768,0.225 z"
       stroke="#0000ff"
       stroke-width="0.16"
       id="path18" />
  </g>
  <g
     id="p-6"
     style="fill:none;stroke-linecap:round;stroke-linejoin:round"
     transform="translate(-411.08,243.58435)">
    <path
       d="m 420.993,129.067 c 0,0.272 -0.078,0.538 -0.225,0.767 -0.147,0.229 -0.357,0.411 -0.605,0.524 -0.247,0.113 -0.522,0.153 -0.792,0.114 -0.269,-0.039 -0.522,-0.154 -0.728,-0.332 -0.205,-0.178 -0.355,-0.412 -0.432,-0.673 -0.077,-0.261 -0.077,-0.539 0,-0.8 0.077,-0.262 0.227,-0.495 0.432,-0.673 0.206,-0.179 0.459,-0.294 0.728,-0.333 0.27,-0.039 0.545,0.001 0.792,0.114 0.248,0.113 0.458,0.295 0.605,0.524 0.147,0.229 0.225,0.495 0.225,0.768 z"
       stroke="#0000ff"
       stroke-width="0.16"
       id="path19" />
    <text
       dominant-baseline="hanging"
       font-size="4px"
       style="font-style:normal;font-weight:normal;font-family:sans-serif;display:none;fill:#ff0000"
       text-anchor="middle"
       transform="translate(606.74,89.48)"
       id="text19">Top</text>
    <path
       d="m 411.24,137.48 h 391 c 0.044,0 0.08,-0.036 0.08,-0.08 v -92 c 0,-0.044 -0.036,-0.08 -0.08,-0.08 h -391 c -0.044,0 -0.08,0.036 -0.08,0.08 v 92 c 0,0.044 0.036,0.08 0.08,0.08"
       stroke="#000000"
       stroke-width="0.16"
       id="path20" />
    <path
       d="m 793.907,127.647 c 0.272,0 0.538,0.078 0.767,0.225 0.229,0.147 0.411,0.357 0.524,0.605 0.113,0.247 0.153,0.522 0.114,0.792 -0.039,0.269 -0.154,0.522 -0.332,0.728 -0.178,0.205 -0.412,0.355 -0.673,0.432 -0.261,0.077 -0.539,0.077 -0.8,0 -0.262,-0.077 -0.495,-0.227 -0.673,-0.432 -0.179,-0.206 -0.294,-0.459 -0.333,-0.728 -0.039,-0.27 10e-4,-0.545 0.114,-0.792 0.113,-0.248 0.295,-0.458 0.524,-0.605 0.229,-0.147 0.495,-0.225 0.768,-0.225 z"
       stroke="#0000ff"
       stroke-width="0.16"
       id="path21" />
    <path
       d="m 792.487,53.733 c 0,-0.272 0.078,-0.538 0.225,-0.767 0.147,-0.229 0.357,-0.411 0.605,-0.524 0.247,-0.113 0.522,-0.153 0.792,-0.114 0.269,0.039 0.522,0.154 0.728,0.332 0.205,0.178 0.355,0.412 0.432,0.673 0.077,0.261 0.077,0.539 0,0.8 -0.077,0.262 -0.227,0.495 -0.432,0.673 -0.206,0.179 -0.459,0.294 -0.728,0.333 -0.27,0.039 -0.545,-0.001 -0.792,-0.114 -0.248,-0.113 -0.458,-0.295 -0.605,-0.524 -0.147,-0.229 -0.225,-0.495 -0.225,-0.768 z"
       stroke="#0000ff"
       stroke-width="0.16"
       id="path22" />
    <path
       d="m 419.573,55.153 c -0.272,0 -0.538,-0.078 -0.767,-0.225 -0.229,-0.147 -0.411,-0.357 -0.524,-0.605 -0.113,-0.247 -0.153,-0.522 -0.114,-0.792 0.039,-0.269 0.154,-0.522 0.332,-0.728 0.178,-0.205 0.412,-0.355 0.673,-0.432 0.261,-0.077 0.539,-0.077 0.8,0 0.262,0.077 0.495,0.227 0.673,0.432 0.179,0.206 0.294,0.459 0.333,0.728 0.039,0.27 -10e-4,0.545 -0.114,0.792 -0.113,0.248 -0.295,0.458 -0.524,0.605 -0.229,0.147 -0.495,0.225 -0.768,0.225 z"
       stroke="#0000ff"
       stroke-width="0.16"
       id="path23" />
  </g>
  <g
     id="p-7"
     style="fill:none;stroke-linecap:round;stroke-linejoin:round"
     transform="translate(-200.02297,375.88171)">
    <path
       d="m 421.349,39.32 h 8.42 c 0.08,0 0,-0.08 0,0 v 3.92 c 0,0.044 0.036,0.08 0.08,0.08 h 8 c 0.045,0 0.08,-0.036 0.08,-0.08 v -3.92 c 0,-0.08 -0.08,0 0,0 h 8.42 c 0.045,0 0.08,-0.036 0.08,-0.08 v -8.42 c 0,-0.08 -0.08,0 0,0 h 3.92 c 0.045,0 0.08,-0.036 0.08,-0.08 v -8 c 0,-0.044 -0.035,-0.08 -0.08,-0.08 h -3.92 c -0.08,0 0,0.08 0,0 v -8.42 c 0,-0.044 -0.035,-0.08 -0.08,-0.08 -0.021,0 -0.041,0.008 -0.056,0.023 l -25,25 c -0.015,0.015 -0.024,0.036 -0.024,0.057 0,0.044 0.036,0.08 0.08,0.08 z"
       stroke="#000000"
       stroke-width="0.16"
       id="path24" />
    <path
       d="m 438.016,29.987 c 0.176,0 0.349,0.05 0.497,0.146 0.149,0.095 0.267,0.231 0.34,0.391 0.073,0.161 0.099,0.339 0.074,0.514 -0.025,0.174 -0.1,0.338 -0.216,0.471 -0.115,0.133 -0.267,0.231 -0.436,0.28 -0.169,0.05 -0.349,0.05 -0.518,0 -0.169,-0.049 -0.321,-0.147 -0.436,-0.28 -0.116,-0.133 -0.19,-0.297 -0.216,-0.471 -0.025,-0.175 10e-4,-0.353 0.074,-0.514 0.073,-0.16 0.191,-0.296 0.34,-0.391 0.148,-0.096 0.321,-0.146 0.497,-0.146 z"
       stroke="#0000ff"
       stroke-width="0.16"
       id="path25" />
    <path
       d="m 440.24,14 h -8.42 c -0.08,0 0,0.08 0,0 v -3.92 c 0,-0.044 -0.036,-0.08 -0.08,-0.08 h -8 c -0.044,0 -0.08,0.036 -0.08,0.08 V 14 c 0,0.08 0.08,0 0,0 h -8.42 c -0.044,0 -0.08,0.036 -0.08,0.08 v 8.42 c 0,0.08 0.08,0 0,0 h -3.92 c -0.044,0 -0.08,0.036 -0.08,0.08 v 8 c 0,0.044 0.036,0.08 0.08,0.08 h 3.92 c 0.08,0 0,-0.08 0,0 v 8.42 c 0,0.044 0.036,0.08 0.08,0.08 0.021,0 0.042,-0.008 0.057,-0.023 l 25,-25 c 0.015,-0.015 0.023,-0.036 0.023,-0.057 0,-0.044 -0.036,-0.08 -0.08,-0.08 z"
       stroke="#000000"
       stroke-width="0.16"
       id="path26" />
    <path
       d="m 423.573,23.333 c -0.176,0 -0.349,-0.05 -0.497,-0.146 -0.148,-0.095 -0.266,-0.231 -0.34,-0.391 -0.073,-0.161 -0.098,-0.339 -0.073,-0.514 0.025,-0.174 0.1,-0.338 0.215,-0.471 0.116,-0.133 0.267,-0.231 0.436,-0.28 0.169,-0.05 0.349,-0.05 0.519,0 0.169,0.049 0.32,0.147 0.436,0.28 0.115,0.133 0.19,0.297 0.215,0.471 0.025,0.175 -10e-4,0.353 -0.074,0.514 -0.073,0.16 -0.191,0.296 -0.339,0.391 -0.149,0.096 -0.321,0.146 -0.498,0.146 z"
       stroke="#0000ff"
       stroke-width="0.16"
       id="path27" />
    <path
       d="m 462.619,39.32 h 8.42 c 0.08,0 0,-0.08 0,0 v 3.92 c 0,0.044 0.036,0.08 0.08,0.08 h 8 c 0.044,0 0.08,-0.036 0.08,-0.08 v -3.92 c 0,-0.08 -0.08,0 0,0 h 8.42 c 0.044,0 0.08,-0.036 0.08,-0.08 v -8.42 c 0,-0.08 -0.08,0 0,0 h 3.92 c 0.044,0 0.08,-0.036 0.08,-0.08 v -8 c 0,-0.044 -0.036,-0.08 -0.08,-0.08 h -3.92 c -0.08,0 0,0.08 0,0 v -8.42 c 0,-0.044 -0.036,-0.08 -0.08,-0.08 -0.021,0 -0.042,0.008 -0.057,0.023 l -25,25 c -0.015,0.015 -0.023,0.036 -0.023,0.057 0,0.044 0.036,0.08 0.08,0.08 z"
       stroke="#000000"
       stroke-width="0.16"
       id="path28" />
    <path
       d="m 479.285,29.987 c 0.177,0 0.349,0.05 0.498,0.146 0.148,0.095 0.266,0.231 0.339,0.391 0.074,0.161 0.099,0.339 0.074,0.514 -0.025,0.174 -0.1,0.338 -0.215,0.471 -0.116,0.133 -0.267,0.231 -0.436,0.28 -0.17,0.05 -0.349,0.05 -0.519,0 -0.169,-0.049 -0.32,-0.147 -0.436,-0.28 -0.115,-0.133 -0.19,-0.297 -0.215,-0.471 -0.025,-0.175 0,-0.353 0.074,-0.514 0.073,-0.16 0.191,-0.296 0.339,-0.391 0.148,-0.096 0.321,-0.146 0.497,-0.146 z"
       stroke="#0000ff"
       stroke-width="0.16"
       id="path29" />
    <path
       d="m 481.509,14 h -8.42 c -0.08,0 0,0.08 0,0 v -3.92 c 0,-0.044 -0.035,-0.08 -0.08,-0.08 h -8 c -0.044,0 -0.08,0.036 -0.08,0.08 V 14 c 0,0.08 0.08,0 0,0 h -8.42 c -0.044,0 -0.08,0.036 -0.08,0.08 v 8.42 c 0,0.08 0.08,0 0,0 h -3.92 c -0.044,0 -0.08,0.036 -0.08,0.08 v 8 c 0,0.044 0.036,0.08 0.08,0.08 h 3.92 c 0.08,0 0,-0.08 0,0 v 8.42 c 0,0.044 0.036,0.08 0.08,0.08 0.022,0 0.042,-0.008 0.057,-0.023 l 25,-25 c 0.015,-0.015 0.023,-0.036 0.023,-0.057 0,-0.044 -0.035,-0.08 -0.08,-0.08 z"
       stroke="#000000"
       stroke-width="0.16"
       id="path30" />
    <path
       d="m 464.843,23.333 c -0.177,0 -0.349,-0.05 -0.498,-0.146 -0.148,-0.095 -0.266,-0.231 -0.339,-0.391 -0.073,-0.161 -0.099,-0.339 -0.074,-0.514 0.025,-0.174 0.1,-0.338 0.215,-0.471 0.116,-0.133 0.267,-0.231 0.437,-0.28 0.169,-0.05 0.349,-0.05 0.518,0 0.169,0.049 0.321,0.147 0.436,0.28 0.116,0.133 0.19,0.297 0.215,0.471 0.025,0.175 0,0.353 -0.073,0.514 -0.074,0.16 -0.192,0.296 -0.34,0.391 -0.148,0.096 -0.321,0.146 -0.497,0.146 z"
       stroke="#0000ff"
       stroke-width="0.16"
       id="path31" />
  </g>
</svg>
